#define iconfor_width 15
#define iconfor_height 15
static char iconfor_bits[] = {
  0xff, 0x7f, 0xff, 0x7f, 0xff, 0x7f, 0xef, 0x7e, 0xcf, 0x7c, 0x9f, 0x79, 
  0x3f, 0x73, 0x7f, 0x66, 0x3f, 0x73, 0x9f, 0x79, 0xcf, 0x7c, 0xef, 0x7e, 
  0xff, 0x7f, 0xff, 0x7f, 0xff, 0x7f, };
