#define iconbak1_width 15
#define iconbak1_height 15
static char iconbak1_bits[] = {
  0xff, 0x7f, 0xff, 0x7f, 0xff, 0x7f, 0xff, 0x7d, 0xff, 0x7c, 0x7f, 0x7e, 
  0x3f, 0x7f, 0x9f, 0x7f, 0x3f, 0x7f, 0x7f, 0x7e, 0xff, 0x7c, 0xff, 0x7d, 
  0xff, 0x7f, 0xff, 0x7f, 0xff, 0x7f, };
