#define iconstep_width 15
#define iconstep_height 15
static char iconstep_bits[] = {
  0xff, 0x7f, 0xff, 0x7f, 0xff, 0x7f, 0xbf, 0x7d, 0x9f, 0x79, 0xcf, 0x73, 
  0xe7, 0x67, 0xf3, 0x4f, 0xe7, 0x67, 0xcf, 0x73, 0x9f, 0x79, 0xbf, 0x7d, 
  0xff, 0x7f, 0xff, 0x7f, 0xff, 0x7f, };
