#define iconstop_width 15
#define iconstop_height 15
static char iconstop_bits[] = {
  0xff, 0x7f, 0xff, 0x7f, 0xff, 0x7f, 0xff, 0x7f, 0x0f, 0x78, 0x0f, 0x78, 
  0x0f, 0x78, 0x0f, 0x78, 0x0f, 0x78, 0x0f, 0x78, 0x0f, 0x78, 0xff, 0x7f, 
  0xff, 0x7f, 0xff, 0x7f, 0xff, 0x7f, };
