#define iconfora_width 15
#define iconfora_height 15
static char iconfora_bits[] = {
  0xff, 0x7f, 0xff, 0x7f, 0xff, 0x7f, 0xbf, 0x7f, 0x3f, 0x7f, 0x7f, 0x7e, 
  0xff, 0x7c, 0xff, 0x79, 0xff, 0x7c, 0x7f, 0x7e, 0x3f, 0x7f, 0xbf, 0x7f, 
  0xff, 0x7f, 0xff, 0x7f, 0xff, 0x7f, };
