#define iconbak_width 15
#define iconbak_height 15
static char iconbak_bits[] = {
  0xff, 0x7f, 0xff, 0x7f, 0xff, 0x7f, 0x7f, 0x77, 0x3f, 0x73, 0x9f, 0x79, 
  0xcf, 0x7c, 0x67, 0x7e, 0xcf, 0x7c, 0x9f, 0x79, 0x3f, 0x73, 0x7f, 0x77, 
  0xff, 0x7f, 0xff, 0x7f, 0xff, 0x7f, };
